<svg width="100%" height="640" viewBox="0 0 680 640" xmlns="http://www.w3.org/2000/svg" style="background:#0d1117">
    <defs>
      <marker id="arrow" viewBox="0 0 10 10" refX="8" refY="5" markerWidth="6" markerHeight="6" orient="auto-start-reverse">
        <path d="M2 1L8 5L2 9" fill="none" stroke="#8b949e" stroke-width="1.5" stroke-linecap="round" stroke-linejoin="round"/>
      </marker>
    </defs>
    <rect x="260" y="20" width="160" height="44" rx="8" fill="#21262d" stroke="#30363d" stroke-width="0.5"/>
    <text x="340" y="42" text-anchor="middle" dominant-baseline="central" fill="#c9d1d9" font-size="14" font-weight="500" font-family="Segoe UI, system-ui, sans-serif">Usuario</text>
    <line x1="340" y1="64" x2="340" y2="108" stroke="#8b949e" stroke-width="1" marker-end="url(#arrow)"/>
    <text x="355" y="90" fill="#8b949e" font-size="11" font-family="Segoe UI, system-ui, sans-serif">tema</text>
    <rect x="190" y="108" width="300" height="56" rx="8" fill="#1a1139" stroke="#534AB7" stroke-width="0.5"/>
    <text x="340" y="129" text-anchor="middle" dominant-baseline="central" fill="#AFA9EC" font-size="14" font-weight="500" font-family="Segoe UI, system-ui, sans-serif">Orchestrator</text>
    <text x="340" y="150" text-anchor="middle" dominant-baseline="central" fill="#7F77DD" font-size="12" font-family="Segoe UI, system-ui, sans-serif">orchestrator.py — descompone el tema</text>
    <line x1="340" y1="164" x2="340" y2="218" stroke="#8b949e" stroke-width="1" marker-end="url(#arrow)"/>
    <text x="356" y="196" fill="#8b949e" font-size="11" font-family="Segoe UI, system-ui, sans-serif">crea tareas</text>
    <rect x="190" y="218" width="300" height="56" rx="8" fill="#1f1a0d" stroke="#BA7517" stroke-width="0.5"/>
    <text x="340" y="239" text-anchor="middle" dominant-baseline="central" fill="#FAC775" font-size="14" font-weight="500" font-family="Segoe UI, system-ui, sans-serif">Beads + Dolt</text>
    <text x="340" y="260" text-anchor="middle" dominant-baseline="central" fill="#BA7517" font-size="12" font-family="Segoe UI, system-ui, sans-serif">pizarra compartida — trazabilidad Git</text>
    <path d="M230 274 L230 310 L150 310 L150 348" fill="none" stroke="#8b949e" stroke-width="1" marker-end="url(#arrow)"/>
    <path d="M450 274 L450 310 L530 310 L530 348" fill="none" stroke="#8b949e" stroke-width="1" marker-end="url(#arrow)"/>
    <text x="60" y="308" fill="#8b949e" font-size="11" font-family="Segoe UI, system-ui, sans-serif">SUBTEMA-1</text>
    <text x="458" y="308" fill="#8b949e" font-size="11" font-family="Segoe UI, system-ui, sans-serif">SUBTEMA-2</text>
    <rect x="50" y="348" width="200" height="56" rx="8" fill="#0d1f1a" stroke="#0F6E56" stroke-width="0.5"/>
    <text x="150" y="369" text-anchor="middle" dominant-baseline="central" fill="#5DCAA5" font-size="14" font-weight="500" font-family="Segoe UI, system-ui, sans-serif">Researcher-1</text>
    <text x="150" y="390" text-anchor="middle" dominant-baseline="central" fill="#0F6E56" font-size="12" font-family="Segoe UI, system-ui, sans-serif">polling Beads — busca en arXiv</text>
    <rect x="430" y="348" width="200" height="56" rx="8" fill="#0d1f1a" stroke="#0F6E56" stroke-width="0.5"/>
    <text x="530" y="369" text-anchor="middle" dominant-baseline="central" fill="#5DCAA5" font-size="14" font-weight="500" font-family="Segoe UI, system-ui, sans-serif">Researcher-2</text>
    <text x="530" y="390" text-anchor="middle" dominant-baseline="central" fill="#0F6E56" font-size="12" font-family="Segoe UI, system-ui, sans-serif">delay 30s — busca en Wikipedia</text>
    <rect x="200" y="348" width="230" height="56" rx="8" fill="#1f0f0a" stroke="#993C1D" stroke-width="0.5"/>
    <text x="315" y="369" text-anchor="middle" dominant-baseline="central" fill="#F0997B" font-size="14" font-weight="500" font-family="Segoe UI, system-ui, sans-serif">Ollama + qwen2.5:7b</text>
    <text x="315" y="390" text-anchor="middle" dominant-baseline="central" fill="#993C1D" font-size="12" font-family="Segoe UI, system-ui, sans-serif">LLM local — puerto 11434</text>
    <line x1="250" y1="404" x2="250" y2="448" stroke="#8b949e" stroke-width="1" marker-end="url(#arrow)"/>
    <line x1="530" y1="404" x2="530" y2="448" stroke="#8b949e" stroke-width="1" marker-end="url(#arrow)"/>
    <rect x="50" y="448" width="200" height="44" rx="8" fill="#0a1520" stroke="#185FA5" stroke-width="0.5"/>
    <text x="150" y="470" text-anchor="middle" dominant-baseline="central" fill="#85B7EB" font-size="13" font-weight="500" font-family="Segoe UI, system-ui, sans-serif">Playwright + arXiv</text>
    <rect x="430" y="448" width="200" height="44" rx="8" fill="#0a1520" stroke="#185FA5" stroke-width="0.5"/>
    <text x="530" y="470" text-anchor="middle" dominant-baseline="central" fill="#85B7EB" font-size="13" font-weight="500" font-family="Segoe UI, system-ui, sans-serif">Playwright + Wikipedia</text>
    <line x1="150" y1="492" x2="150" y2="516" stroke="#8b949e" stroke-width="1" marker-end="url(#arrow)"/>
    <line x1="530" y1="492" x2="530" y2="516" stroke="#8b949e" stroke-width="1" marker-end="url(#arrow)"/>
    <rect x="50" y="516" width="200" height="44" rx="8" fill="#0d1a0d" stroke="#3B6D11" stroke-width="0.5"/>
    <text x="150" y="538" text-anchor="middle" dominant-baseline="central" fill="#97C459" font-size="13" font-weight="500" font-family="Segoe UI, system-ui, sans-serif">finding-1.md</text>
    <rect x="430" y="516" width="200" height="44" rx="8" fill="#0d1a0d" stroke="#3B6D11" stroke-width="0.5"/>
    <text x="530" y="538" text-anchor="middle" dominant-baseline="central" fill="#97C459" font-size="13" font-weight="500" font-family="Segoe UI, system-ui, sans-serif">finding-2.md</text>
    <path d="M210 538 L280 538 L280 572 L230 572" fill="none" stroke="#8b949e" stroke-width="1" marker-end="url(#arrow)"/>
    <path d="M430 538 L390 538 L390 572 L450 572" fill="none" stroke="#8b949e" stroke-width="1" marker-end="url(#arrow)"/>
    <rect x="190" y="560" width="140" height="44" rx="8" fill="#1a1139" stroke="#534AB7" stroke-width="0.5"/>
    <text x="260" y="582" text-anchor="middle" dominant-baseline="central" fill="#AFA9EC" font-size="13" font-weight="500" font-family="Segoe UI, system-ui, sans-serif">Synthesizer</text>
    <rect x="350" y="560" width="140" height="44" rx="8" fill="#1f0a0a" stroke="#A32D2D" stroke-width="0.5"/>
    <text x="420" y="582" text-anchor="middle" dominant-baseline="central" fill="#F09595" font-size="13" font-weight="500" font-family="Segoe UI, system-ui, sans-serif">Critic</text>
    <line x1="330" y1="582" x2="350" y2="582" stroke="#8b949e" stroke-width="1" marker-end="url(#arrow)"/>
    <rect x="500" y="218" width="160" height="56" rx="8" fill="#0a1520" stroke="#185FA5" stroke-width="0.5"/>
    <text x="580" y="239" text-anchor="middle" dominant-baseline="central" fill="#85B7EB" font-size="14" font-weight="500" font-family="Segoe UI, system-ui, sans-serif">Monitor web</text>
    <text x="580" y="260" text-anchor="middle" dominant-baseline="central" fill="#185FA5" font-size="12" font-family="Segoe UI, system-ui, sans-serif">Flask — puerto 5001</text>
    <line x1="500" y1="246" x2="492" y2="246" stroke="#8b949e" stroke-width="1" marker-end="url(#arrow)"/>
    <rect x="20" y="330" width="640" height="300" rx="12" fill="none" stroke="#30363d" stroke-width="0.5" stroke-dasharray="6 4"/>
    <text x="36" y="324" fill="#8b949e" font-size="11" font-family="Segoe UI, system-ui, sans-serif">tmux — 4 paneles en paralelo</text>
</svg>
